# xmcd CD database file
#
# Track frame offsets:
#	150
#	18475
#	31937
#	54422
#	85190
#
# Disc length: 1204 seconds
#
# Revision: 0
# Processed by: cddbd v1.5PL3 Copyright (c) Steve Scherf et al.
# Submitted via: CDex 1.51
#
DISCID=3104b205
DTITLE=矢井田瞳 - Chapter01 - マーブル色の日
DYEAR=2004
DGENRE=JPop
TTITLE0=Chapter01
TTITLE1=マーブル色の日
TTITLE2=月のなみだ
TTITLE3=Hello
TTITLE4=CD EXTRA
EXTD=YEAR: 2004
EXTT0=
EXTT1=
EXTT2=
EXTT3=
EXTT4=
PLAYORDER=
